<?xml version="1.0"?>
<svg width="200" height="50" xmlns="http://www.w3.org/2000/svg" xmlns:svg="http://www.w3.org/2000/svg" preserveAspectRatio="xMidYMid slice">
 <g class="layer">
  <title>Layer 1</title>
  <rect fill="#ffffff" height="50" id="svg_1" width="200" x="0.07" y="-0.22">My Car Speci</rect>
  <rect fill="#bfbfbf" height="0.67" id="svg_2" transform="matrix(1 0 0 1 0 0)" width="200" x="0" y="26.12"/>
  <rect fill="#fff" height="2" id="svg_3" transform="matrix(1 0 0 1 0 0)" width="200" x="0.07" y="24"/>
  <rect fill="#ffffff" height="2" id="svg_4" transform="matrix(1 0 0 1 0 0)" width="20" x="10.19" y="24"/>
  <rect fill="#ffffff" height="2" id="svg_5" transform="matrix(1 0 0 1 0 0)" width="20" x="49.89" y="24"/>
  <rect fill="#ffffff" height="2" id="svg_7" transform="matrix(1 0 0 1 0 0)" width="20" x="130" y="24"/>
  <g id="svg_9" transform="matrix(1 0 0 1 0 0)">
   <g id="svg_10">
    <g id="svg_11">
     <path d="m32.81,25.28c-0.25,0 -0.44,0.2 -0.44,0.44s0.2,0.45 0.44,0.45c0.25,0 0.44,-0.2 0.44,-0.45s-0.2,-0.44 -0.44,-0.44zm0,0.58c-0.07,0 -0.13,-0.06 -0.13,-0.13s0.06,-0.13 0.13,-0.13c0.07,0 0.13,0.06 0.13,0.13s-0.06,0.13 -0.13,0.13z" fill="#007fff" id="svg_12"/>
     <path d="m36.04,25.36l-0.07,-0.59c-0.01,-0.11 -0.11,-0.2 -0.23,-0.19l-0.16,0.01l-0.49,-0.45c-0.05,-0.04 -0.11,-0.07 -0.17,-0.07l-1,0c-0.23,0 -0.44,0.08 -0.62,0.22l-0.56,0.45l-0.75,0.19c-0.1,0.02 -0.17,0.11 -0.17,0.21l0,0.22c-0.03,0 -0.06,0.03 -0.06,0.06l0,0.29c0,0.04 0.03,0.07 0.07,0.07l0.43,0c0,-0.02 -0.01,-0.04 -0.01,-0.05c0,-0.31 0.25,-0.56 0.56,-0.56s0.56,0.25 0.56,0.56c0,0.02 0,0.04 -0.01,0.05l1.18,0c0,-0.02 -0.01,-0.04 -0.01,-0.05c0,-0.31 0.25,-0.56 0.56,-0.56c0.31,0 0.56,0.25 0.56,0.56c0,0.02 0,0.04 -0.01,0.05l0.4,0c0.04,0 0.07,-0.03 0.07,-0.07l0,-0.27c0,-0.04 -0.03,-0.07 -0.07,-0.07zm-1.49,-0.73l-1.4,0.07l0.27,-0.22c0.15,-0.12 0.33,-0.18 0.51,-0.18l0.62,0l0,0.33zm0.23,-0.01l0,-0.31l0.09,0c0.03,0 0.06,0.01 0.09,0.03l0.29,0.26l-0.46,0.02z" fill="#007fff" id="svg_13"/>
     <path d="m35.09,25.28c-0.25,0 -0.44,0.2 -0.44,0.44s0.2,0.45 0.44,0.45c0.25,0 0.45,-0.2 0.45,-0.45s-0.2,-0.44 -0.45,-0.44zm0,0.58c-0.07,0 -0.13,-0.06 -0.13,-0.13s0.06,-0.13 0.13,-0.13c0.07,0 0.13,0.06 0.13,0.13s-0.06,0.13 -0.13,0.13z" fill="#007fff" id="svg_14"/>
    </g>
   </g>
  </g>
  <g id="svg_21" transform="matrix(1 0 0 1 0 0)">
   <g id="svg_22">
    <g id="svg_23">
     <path d="m55.23,25.22c-0.25,0 -0.44,0.2 -0.44,0.44s0.2,0.45 0.44,0.45c0.25,0 0.44,-0.2 0.44,-0.45s-0.2,-0.44 -0.44,-0.44zm0,0.58c-0.07,0 -0.13,-0.06 -0.13,-0.13s0.06,-0.13 0.13,-0.13c0.07,0 0.13,0.06 0.13,0.13s-0.06,0.13 -0.13,0.13z" fill="#007fff" id="svg_24"/>
     <path d="m58.47,25.3l-0.07,-0.59c-0.01,-0.11 -0.11,-0.2 -0.23,-0.19l-0.16,0.01l-0.49,-0.45c-0.05,-0.04 -0.11,-0.07 -0.17,-0.07l-1,0c-0.23,0 -0.44,0.08 -0.62,0.22l-0.56,0.45l-0.75,0.19c-0.1,0.02 -0.17,0.11 -0.17,0.21l0,0.22c-0.03,0 -0.06,0.03 -0.06,0.06l0,0.29c0,0.04 0.03,0.07 0.07,0.07l0.43,0c0,-0.02 -0.01,-0.04 -0.01,-0.05c0,-0.31 0.25,-0.56 0.56,-0.56s0.56,0.25 0.56,0.56c0,0.02 0,0.04 -0.01,0.05l1.18,0c0,-0.02 -0.01,-0.04 -0.01,-0.05c0,-0.31 0.25,-0.56 0.56,-0.56c0.31,0 0.56,0.25 0.56,0.56c0,0.02 0,0.04 -0.01,0.05l0.4,0c0.04,0 0.07,-0.03 0.07,-0.07l0,-0.27c0,-0.04 -0.03,-0.07 -0.07,-0.07zm-1.49,-0.73l-1.4,0.07l0.27,-0.22c0.15,-0.12 0.33,-0.18 0.51,-0.18l0.62,0l0,0.33zm0.23,-0.01l0,-0.31l0.09,0c0.03,0 0.06,0.01 0.09,0.03l0.29,0.26l-0.46,0.02z" fill="#007fff" id="svg_25"/>
     <path d="m57.52,25.22c-0.25,0 -0.44,0.2 -0.44,0.44s0.2,0.45 0.44,0.45c0.25,0 0.45,-0.2 0.45,-0.45s-0.2,-0.44 -0.45,-0.44zm0,0.58c-0.07,0 -0.13,-0.06 -0.13,-0.13s0.06,-0.13 0.13,-0.13c0.07,0 0.13,0.06 0.13,0.13s-0.06,0.13 -0.13,0.13z" fill="#007fff" id="svg_26"/>
    </g>
   </g>
  </g>
  <g id="svg_27" transform="matrix(1 0 0 1 0 0)">
   <g id="svg_28">
    <g id="svg_29">
     <path d="m12.97,25.19c-0.25,0 -0.44,0.2 -0.44,0.44s0.2,0.45 0.44,0.45c0.25,0 0.44,-0.2 0.44,-0.45s-0.2,-0.44 -0.44,-0.44zm0,0.58c-0.07,0 -0.13,-0.06 -0.13,-0.13s0.06,-0.13 0.13,-0.13c0.07,0 0.13,0.06 0.13,0.13s-0.06,0.13 -0.13,0.13z" fill="#007fff" id="svg_30"/>
     <path d="m16.2,25.28l-0.07,-0.59c-0.01,-0.11 -0.11,-0.2 -0.23,-0.19l-0.16,0.01l-0.49,-0.45c-0.05,-0.04 -0.11,-0.07 -0.17,-0.07l-1,0c-0.23,0 -0.44,0.08 -0.62,0.22l-0.56,0.45l-0.75,0.19c-0.1,0.02 -0.17,0.11 -0.17,0.21l0,0.22c-0.03,0 -0.06,0.03 -0.06,0.06l0,0.29c0,0.04 0.03,0.07 0.07,0.07l0.43,0c0,-0.02 -0.01,-0.04 -0.01,-0.05c0,-0.31 0.25,-0.56 0.56,-0.56s0.56,0.25 0.56,0.56c0,0.02 0,0.04 -0.01,0.05l1.18,0c0,-0.02 -0.01,-0.04 -0.01,-0.05c0,-0.31 0.25,-0.56 0.56,-0.56c0.31,0 0.56,0.25 0.56,0.56c0,0.02 0,0.04 -0.01,0.05l0.4,0c0.04,0 0.07,-0.03 0.07,-0.07l0,-0.27c0,-0.04 -0.03,-0.07 -0.07,-0.07zm-1.49,-0.73l-1.4,0.07l0.27,-0.22c0.15,-0.12 0.33,-0.18 0.51,-0.18l0.62,0l0,0.33zm0.23,-0.01l0,-0.31l0.09,0c0.03,0 0.06,0.01 0.09,0.03l0.29,0.26l-0.46,0.02z" fill="#007fff" id="svg_31"/>
     <path d="m15.25,25.19c-0.25,0 -0.44,0.2 -0.44,0.44s0.2,0.45 0.44,0.45c0.25,0 0.45,-0.2 0.45,-0.45s-0.2,-0.44 -0.45,-0.44zm0,0.58c-0.07,0 -0.13,-0.06 -0.13,-0.13s0.06,-0.13 0.13,-0.13c0.07,0 0.13,0.06 0.13,0.13s-0.06,0.13 -0.13,0.13z" fill="#007fff" id="svg_32"/>
    </g>
   </g>
  </g>
  <g id="svg_33" transform="matrix(1 0 0 1 0 0)">
   <g id="svg_34">
    <g id="svg_35">
     <path d="m81.7,25.34c-0.25,0 -0.44,0.2 -0.44,0.44s0.2,0.45 0.44,0.45c0.25,0 0.44,-0.2 0.44,-0.45s-0.2,-0.44 -0.44,-0.44zm0,0.58c-0.07,0 -0.13,-0.06 -0.13,-0.13s0.06,-0.13 0.13,-0.13c0.07,0 0.13,0.06 0.13,0.13s-0.06,0.13 -0.13,0.13z" fill="#007fff" id="svg_36"/>
     <path d="m84.93,25.42l-0.07,-0.59c-0.01,-0.11 -0.11,-0.2 -0.23,-0.19l-0.16,0.01l-0.49,-0.45c-0.05,-0.04 -0.11,-0.07 -0.17,-0.07l-1,0c-0.23,0 -0.44,0.08 -0.62,0.22l-0.56,0.45l-0.75,0.19c-0.1,0.02 -0.17,0.11 -0.17,0.21l0,0.22c-0.03,0 -0.06,0.03 -0.06,0.06l0,0.29c0,0.04 0.03,0.07 0.07,0.07l0.43,0c0,-0.02 -0.01,-0.04 -0.01,-0.05c0,-0.31 0.25,-0.56 0.56,-0.56s0.56,0.25 0.56,0.56c0,0.02 0,0.04 -0.01,0.05l1.18,0c0,-0.02 -0.01,-0.04 -0.01,-0.05c0,-0.31 0.25,-0.56 0.56,-0.56c0.31,0 0.56,0.25 0.56,0.56c0,0.02 0,0.04 -0.01,0.05l0.4,0c0.04,0 0.07,-0.03 0.07,-0.07l0,-0.27c0,-0.04 -0.03,-0.07 -0.07,-0.07zm-1.49,-0.73l-1.4,0.07l0.27,-0.22c0.15,-0.12 0.33,-0.18 0.51,-0.18l0.62,0l0,0.33zm0.23,-0.01l0,-0.31l0.09,0c0.03,0 0.06,0.01 0.09,0.03l0.29,0.26l-0.46,0.02z" fill="#007fff" id="svg_37"/>
     <path d="m83.98,25.34c-0.25,0 -0.44,0.2 -0.44,0.44s0.2,0.45 0.44,0.45c0.25,0 0.45,-0.2 0.45,-0.45s-0.2,-0.44 -0.45,-0.44zm0,0.58c-0.07,0 -0.13,-0.06 -0.13,-0.13s0.06,-0.13 0.13,-0.13c0.07,0 0.13,0.06 0.13,0.13s-0.06,0.13 -0.13,0.13z" fill="#007fff" id="svg_38"/>
    </g>
   </g>
  </g>
  <g id="svg_39" transform="matrix(1 0 0 1 0 0)">
   <g id="svg_40">
    <g id="svg_41">
     <path d="m107.37,25.42c-0.25,0 -0.44,0.2 -0.44,0.44s0.2,0.45 0.44,0.45c0.25,0 0.44,-0.2 0.44,-0.45s-0.2,-0.44 -0.44,-0.44zm0,0.58c-0.07,0 -0.13,-0.06 -0.13,-0.13s0.06,-0.13 0.13,-0.13c0.07,0 0.13,0.06 0.13,0.13s-0.06,0.13 -0.13,0.13z" fill="#007fff" id="svg_42"/>
     <path d="m110.61,25.5l-0.07,-0.59c-0.01,-0.11 -0.11,-0.2 -0.23,-0.19l-0.16,0.01l-0.49,-0.45c-0.05,-0.04 -0.11,-0.07 -0.17,-0.07l-1,0c-0.23,0 -0.44,0.08 -0.62,0.22l-0.56,0.45l-0.75,0.19c-0.1,0.02 -0.17,0.11 -0.17,0.21l0,0.22c-0.03,0 -0.06,0.03 -0.06,0.06l0,0.29c0,0.04 0.03,0.07 0.07,0.07l0.43,0c0,-0.02 -0.01,-0.04 -0.01,-0.05c0,-0.31 0.25,-0.56 0.56,-0.56s0.56,0.25 0.56,0.56c0,0.02 0,0.04 -0.01,0.05l1.18,0c0,-0.02 -0.01,-0.04 -0.01,-0.05c0,-0.31 0.25,-0.56 0.56,-0.56c0.31,0 0.56,0.25 0.56,0.56c0,0.02 0,0.04 -0.01,0.05l0.4,0c0.04,0 0.07,-0.03 0.07,-0.07l0,-0.27c0,-0.04 -0.03,-0.07 -0.07,-0.07zm-1.49,-0.73l-1.4,0.07l0.27,-0.22c0.15,-0.12 0.33,-0.18 0.51,-0.18l0.62,0l0,0.33zm0.23,-0.01l0,-0.31l0.09,0c0.03,0 0.06,0.01 0.09,0.03l0.29,0.26l-0.46,0.02z" fill="#007fff" id="svg_43"/>
     <path d="m109.66,25.42c-0.25,0 -0.44,0.2 -0.44,0.44s0.2,0.45 0.44,0.45c0.25,0 0.45,-0.2 0.45,-0.45s-0.2,-0.44 -0.45,-0.44zm0,0.58c-0.07,0 -0.13,-0.06 -0.13,-0.13s0.06,-0.13 0.13,-0.13c0.07,0 0.13,0.06 0.13,0.13s-0.06,0.13 -0.13,0.13z" fill="#007fff" id="svg_44"/>
    </g>
   </g>
  </g>
  <g id="svg_45" transform="matrix(1 0 0 1 0 0)">
   <g id="svg_46">
    <g id="svg_47">
     <path d="m136.47,25.34c-0.25,0 -0.44,0.2 -0.44,0.44s0.2,0.45 0.44,0.45c0.25,0 0.44,-0.2 0.44,-0.45s-0.2,-0.44 -0.44,-0.44zm0,0.58c-0.07,0 -0.13,-0.06 -0.13,-0.13s0.06,-0.13 0.13,-0.13c0.07,0 0.13,0.06 0.13,0.13s-0.06,0.13 -0.13,0.13z" fill="#007fff" id="svg_48"/>
     <path d="m139.71,25.42l-0.07,-0.59c-0.01,-0.11 -0.11,-0.2 -0.23,-0.19l-0.16,0.01l-0.49,-0.45c-0.05,-0.04 -0.11,-0.07 -0.17,-0.07l-1,0c-0.23,0 -0.44,0.08 -0.62,0.22l-0.56,0.45l-0.75,0.19c-0.1,0.02 -0.17,0.11 -0.17,0.21l0,0.22c-0.03,0 -0.06,0.03 -0.06,0.06l0,0.29c0,0.04 0.03,0.07 0.07,0.07l0.43,0c0,-0.02 -0.01,-0.04 -0.01,-0.05c0,-0.31 0.25,-0.56 0.56,-0.56s0.56,0.25 0.56,0.56c0,0.02 0,0.04 -0.01,0.05l1.18,0c0,-0.02 -0.01,-0.04 -0.01,-0.05c0,-0.31 0.25,-0.56 0.56,-0.56c0.31,0 0.56,0.25 0.56,0.56c0,0.02 0,0.04 -0.01,0.05l0.4,0c0.04,0 0.07,-0.03 0.07,-0.07l0,-0.27c0,-0.04 -0.03,-0.07 -0.07,-0.07zm-1.49,-0.73l-1.4,0.07l0.27,-0.22c0.15,-0.12 0.33,-0.18 0.51,-0.18l0.62,0l0,0.33zm0.23,-0.01l0,-0.31l0.09,0c0.03,0 0.06,0.01 0.09,0.03l0.29,0.26l-0.46,0.02z" fill="#007fff" id="svg_49"/>
     <path d="m138.76,25.34c-0.25,0 -0.44,0.2 -0.44,0.44s0.2,0.45 0.44,0.45c0.25,0 0.45,-0.2 0.45,-0.45s-0.2,-0.44 -0.45,-0.44zm0,0.58c-0.07,0 -0.13,-0.06 -0.13,-0.13s0.06,-0.13 0.13,-0.13c0.07,0 0.13,0.06 0.13,0.13s-0.06,0.13 -0.13,0.13z" fill="#007fff" id="svg_50"/>
    </g>
   </g>
  </g>
  <g id="svg_51" transform="matrix(1 0 0 1 0 0)">
   <g id="svg_52">
    <g id="svg_53">
     <path d="m162,25.27c-0.25,0 -0.44,0.2 -0.44,0.44s0.2,0.45 0.44,0.45c0.25,0 0.44,-0.2 0.44,-0.45s-0.2,-0.44 -0.44,-0.44zm0,0.58c-0.07,0 -0.13,-0.06 -0.13,-0.13s0.06,-0.13 0.13,-0.13c0.07,0 0.13,0.06 0.13,0.13s-0.06,0.13 -0.13,0.13z" fill="#007fff" id="svg_54"/>
     <path d="m165.23,25.35l-0.07,-0.59c-0.01,-0.11 -0.11,-0.2 -0.23,-0.19l-0.16,0.01l-0.49,-0.45c-0.05,-0.04 -0.11,-0.07 -0.17,-0.07l-1,0c-0.23,0 -0.44,0.08 -0.62,0.22l-0.56,0.45l-0.75,0.19c-0.1,0.02 -0.17,0.11 -0.17,0.21l0,0.22c-0.03,0 -0.06,0.03 -0.06,0.06l0,0.29c0,0.04 0.03,0.07 0.07,0.07l0.43,0c0,-0.02 -0.01,-0.04 -0.01,-0.05c0,-0.31 0.25,-0.56 0.56,-0.56s0.56,0.25 0.56,0.56c0,0.02 0,0.04 -0.01,0.05l1.18,0c0,-0.02 -0.01,-0.04 -0.01,-0.05c0,-0.31 0.25,-0.56 0.56,-0.56c0.31,0 0.56,0.25 0.56,0.56c0,0.02 0,0.04 -0.01,0.05l0.4,0c0.04,0 0.07,-0.03 0.07,-0.07l0,-0.27c0,-0.04 -0.03,-0.07 -0.07,-0.07zm-1.49,-0.73l-1.4,0.07l0.27,-0.22c0.15,-0.12 0.33,-0.18 0.51,-0.18l0.62,0l0,0.33zm0.23,-0.01l0,-0.31l0.09,0c0.03,0 0.06,0.01 0.09,0.03l0.29,0.26l-0.46,0.02z" fill="#007fff" id="svg_55"/>
     <path d="m164.28,25.27c-0.25,0 -0.44,0.2 -0.44,0.44s0.2,0.45 0.44,0.45c0.25,0 0.45,-0.2 0.45,-0.45s-0.2,-0.44 -0.45,-0.44zm0,0.58c-0.07,0 -0.13,-0.06 -0.13,-0.13s0.06,-0.13 0.13,-0.13c0.07,0 0.13,0.06 0.13,0.13s-0.06,0.13 -0.13,0.13z" fill="#007fff" id="svg_56"/>
    </g>
   </g>
  </g>
  <g id="svg_57" transform="matrix(1 0 0 1 0 0)">
   <g id="svg_58">
    <g id="svg_59">
     <path d="m186.27,25.33c-0.25,0 -0.44,0.2 -0.44,0.44s0.2,0.45 0.44,0.45c0.25,0 0.44,-0.2 0.44,-0.45s-0.2,-0.44 -0.44,-0.44zm0,0.58c-0.07,0 -0.13,-0.06 -0.13,-0.13s0.06,-0.13 0.13,-0.13c0.07,0 0.13,0.06 0.13,0.13s-0.06,0.13 -0.13,0.13z" fill="#007fff" id="svg_60"/>
     <path d="m189.51,25.41l-0.07,-0.59c-0.01,-0.11 -0.11,-0.2 -0.23,-0.19l-0.16,0.01l-0.49,-0.45c-0.05,-0.04 -0.11,-0.07 -0.17,-0.07l-1,0c-0.23,0 -0.44,0.08 -0.62,0.22l-0.56,0.45l-0.75,0.19c-0.1,0.02 -0.17,0.11 -0.17,0.21l0,0.22c-0.03,0 -0.06,0.03 -0.06,0.06l0,0.29c0,0.04 0.03,0.07 0.07,0.07l0.43,0c0,-0.02 -0.01,-0.04 -0.01,-0.05c0,-0.31 0.25,-0.56 0.56,-0.56s0.56,0.25 0.56,0.56c0,0.02 0,0.04 -0.01,0.05l1.18,0c0,-0.02 -0.01,-0.04 -0.01,-0.05c0,-0.31 0.25,-0.56 0.56,-0.56c0.31,0 0.56,0.25 0.56,0.56c0,0.02 0,0.04 -0.01,0.05l0.4,0c0.04,0 0.07,-0.03 0.07,-0.07l0,-0.27c0,-0.04 -0.03,-0.07 -0.07,-0.07zm-1.49,-0.73l-1.4,0.07l0.27,-0.22c0.15,-0.12 0.33,-0.18 0.51,-0.18l0.62,0l0,0.33zm0.23,-0.01l0,-0.31l0.09,0c0.03,0 0.06,0.01 0.09,0.03l0.29,0.26l-0.46,0.02z" fill="#007fff" id="svg_61"/>
     <path d="m188.56,25.33c-0.25,0 -0.44,0.2 -0.44,0.44s0.2,0.45 0.44,0.45c0.25,0 0.45,-0.2 0.45,-0.45s-0.2,-0.44 -0.45,-0.44zm0,0.58c-0.07,0 -0.13,-0.06 -0.13,-0.13s0.06,-0.13 0.13,-0.13c0.07,0 0.13,0.06 0.13,0.13s-0.06,0.13 -0.13,0.13z" fill="#007fff" id="svg_62"/>
    </g>
   </g>
  </g>
 </g>

</svg>